<svg width="280" height="280" viewBox="0 0 280 280" fill="none" xmlns="http://www.w3.org/2000/svg">
<path d="M0 140C0 24.71 24.71 0 140 0C255.29 0 280 24.71 280 140C280 255.29 255.29 280 140 280C24.71 280 0 255.29 0 140Z" fill="url(#paint0_linear_617_20)"/>
<path fill-rule="evenodd" clip-rule="evenodd" d="M153.005 50.4534C155.035 51.0918 156.808 52.3612 158.067 54.077C159.326 55.7927 160.005 57.8654 160.005 59.9935V109.993H200.005C201.834 109.992 203.628 110.493 205.192 111.441C206.757 112.389 208.031 113.748 208.876 115.37C209.722 116.992 210.106 118.815 209.988 120.641C209.87 122.466 209.253 124.224 208.205 125.723L138.205 225.723C136.986 227.468 135.243 228.78 133.228 229.466C131.213 230.152 129.032 230.177 127.002 229.538C124.971 228.899 123.198 227.628 121.939 225.912C120.681 224.195 120.003 222.122 120.005 219.993V169.993H80.0045C78.1753 169.994 76.3809 169.493 74.8166 168.545C73.2524 167.597 71.9781 166.238 71.1326 164.616C70.287 162.994 69.9025 161.171 70.021 159.345C70.1395 157.52 70.7563 155.762 71.8045 154.263L141.805 54.2635C143.025 52.5214 144.768 51.2136 146.783 50.5303C148.797 49.8469 150.976 49.8235 153.005 50.4635V50.4534Z" fill="url(#paint1_linear_617_20)"/>
<defs>
<linearGradient id="paint0_linear_617_20" x1="140" y1="0" x2="140" y2="280" gradientUnits="userSpaceOnUse">
<stop stop-color="#FF5630"/>
<stop offset="1" stop-color="#FF8B00"/>
</linearGradient>
<linearGradient id="paint1_linear_617_20" x1="140.005" y1="50.0001" x2="140.005" y2="229.999" gradientUnits="userSpaceOnUse">
<stop offset="0.5" stop-color="white"/>
<stop offset="1" stop-color="white" stop-opacity="0"/>
</linearGradient>
</defs>
</svg>
