<svg width="326" height="74" viewBox="0 0 326 74" fill="none" xmlns="http://www.w3.org/2000/svg">
<g clip-path="url(#clip0)">
<path d="M4.54064 28.9018H4.29576C2.19942 28.9018 0.5 30.6012 0.5 32.6976V41.7584C0.5 43.8548 2.19942 45.5542 4.29576 45.5542H4.54064C6.63698 45.5542 8.3364 43.8548 8.3364 41.7584V32.6976C8.3364 30.6012 6.63698 28.9018 4.54064 28.9018Z" fill="#1377FF"/>
<path d="M24.2544 14.2086C24.2544 12.0446 22.5001 10.2904 20.3362 10.2904C18.1722 10.2904 16.418 12.0446 16.418 14.2086V59.2679C16.418 61.4318 18.1722 63.1861 20.3362 63.1861C22.5001 63.1861 24.2544 61.4318 24.2544 59.2679V14.2086Z" fill="#1377FF"/>
<path d="M40.9062 4.1682C40.9062 2.00424 39.152 0.25 36.988 0.25C34.8241 0.25 33.0698 2.00424 33.0698 4.1682V69.798C33.0698 71.962 34.8241 73.7162 36.988 73.7162C39.152 73.7162 40.9062 71.962 40.9062 69.798V4.1682Z" fill="#1377FF"/>
<path d="M57.0693 14.2086C57.0693 12.0446 55.3151 10.2904 53.1511 10.2904C50.9871 10.2904 49.2329 12.0446 49.2329 14.2086V59.2679C49.2329 61.4318 50.9871 63.1861 53.1511 63.1861C55.3151 63.1861 57.0693 61.4318 57.0693 59.2679V14.2086Z" fill="#1377FF"/>
<path d="M73.7212 28.6569C73.7212 26.493 71.9669 24.7387 69.803 24.7387C67.639 24.7387 65.8848 26.493 65.8848 28.6569V45.3093C65.8848 47.4733 67.639 49.2275 69.803 49.2275C71.9669 49.2275 73.7212 47.4733 73.7212 45.3093V28.6569Z" fill="#1377FF"/>
<path d="M106.879 50.9711C105.34 50.9949 103.807 50.7801 102.334 50.3344C101.113 49.9536 99.9567 49.3888 98.9057 48.6594C97.9689 47.9963 97.1425 47.1897 96.4569 46.2693C95.819 45.432 95.2999 44.5107 94.9141 43.5314L101.085 40.9013C101.583 42.1158 102.424 43.159 103.505 43.9036C104.509 44.5542 105.683 44.8949 106.879 44.8832C107.934 44.9368 108.983 44.6978 109.911 44.1926C110.655 43.7322 111.028 43.1837 111.028 42.547C111.03 42.2039 110.946 41.8658 110.783 41.5637C110.621 41.2616 110.385 41.0052 110.097 40.8181C109.104 40.2311 108.015 39.8263 106.879 39.623L103.211 38.8247C102.343 38.6248 101.497 38.336 100.689 37.9627C99.8353 37.5856 99.0391 37.0911 98.3229 36.4934C97.6081 35.8821 97.0135 35.1429 96.5695 34.3139C96.0934 33.3966 95.8559 32.3742 95.8789 31.3409C95.8526 30.1462 96.1361 28.9651 96.7017 27.9125C97.252 26.9136 98.0184 26.0502 98.9449 25.3853C99.9668 24.6613 101.107 24.1209 102.315 23.7886C103.672 23.4076 105.077 23.2196 106.487 23.2302C108.786 23.1916 111.061 23.695 113.129 24.6996C115.08 25.6753 116.61 27.3273 117.434 29.3475L111.429 31.7964C110.985 30.8209 110.214 30.0311 109.25 29.563C108.357 29.1198 107.376 28.8838 106.38 28.8725C105.475 28.853 104.58 29.0637 103.779 29.4847C103.463 29.6127 103.19 29.8282 102.993 30.1058C102.795 30.3834 102.68 30.7116 102.662 31.052C102.666 31.3546 102.755 31.6501 102.92 31.9041C103.085 32.1581 103.318 32.3602 103.593 32.487C104.387 32.9218 105.235 33.2511 106.115 33.4665L110.102 34.4461C112.763 35.0991 114.739 36.1179 116.028 37.5023C117.305 38.8385 118.008 40.6209 117.987 42.4686C117.989 43.5983 117.715 44.7114 117.189 45.7109C116.634 46.7698 115.865 47.702 114.931 48.4488C113.886 49.2841 112.698 49.923 111.424 50.3344C109.954 50.7923 108.419 51.0074 106.879 50.9711Z" fill="#1377FF"/>
<path d="M134.831 23.2302C136.731 23.2028 138.618 23.5489 140.385 24.249C142.022 24.8995 143.508 25.8789 144.751 27.1265C145.994 28.3741 146.969 29.8635 147.614 31.5025C148.992 35.094 148.992 39.0682 147.614 42.6596C146.971 44.2999 145.997 45.7903 144.754 47.0382C143.51 48.2861 142.023 49.2647 140.385 49.9132C136.811 51.2976 132.85 51.2976 129.277 49.9132C127.64 49.2636 126.154 48.2846 124.911 47.0368C123.668 45.789 122.695 44.2991 122.052 42.6596C120.668 39.0694 120.668 35.0928 122.052 31.5025C122.697 29.8642 123.671 28.3754 124.914 27.1279C126.156 25.8804 127.641 24.9006 129.277 24.249C131.043 23.5489 132.93 23.2028 134.831 23.2302ZM134.831 44.5404C135.713 44.5464 136.588 44.38 137.407 44.0506C138.234 43.714 138.985 43.2143 139.616 42.5813C140.273 41.9111 140.788 41.1147 141.129 40.2401C141.874 38.2168 141.874 35.9944 141.129 33.971C140.783 33.0945 140.261 32.2978 139.596 31.6299C138.967 30.9956 138.215 30.4957 137.387 30.1606C135.725 29.488 133.867 29.488 132.205 30.1606C131.39 30.5 130.65 30.9996 130.031 31.6299C129.37 32.2965 128.853 33.0917 128.513 33.9661C127.768 35.9895 127.768 38.2119 128.513 40.2352C128.854 41.111 129.37 41.9078 130.031 42.5764C130.651 43.2054 131.39 43.7049 132.205 44.0457C133.039 44.3838 133.931 44.552 134.831 44.5404Z" fill="#1377FF"/>
<path d="M170.858 46.7198H170.452C169.644 48.0254 168.51 49.0975 167.16 49.8299C165.707 50.6077 164.078 51.0006 162.429 50.9711C159.138 50.9711 156.689 49.9621 155.083 47.9443C153.476 45.9264 152.671 43.2326 152.668 39.863V24.0824H159.628V39.0157C159.628 40.8931 160.044 42.2841 160.877 43.1885C161.709 44.093 162.922 44.5436 164.516 44.5403C165.39 44.5572 166.255 44.3462 167.023 43.9281C167.752 43.5164 168.386 42.9556 168.884 42.2825C169.419 41.5439 169.814 40.714 170.05 39.8336C170.323 38.8581 170.458 37.8492 170.452 36.8362V24.102H177.416V50.1385H170.858V46.7198Z" fill="#1377FF"/>
<path d="M189.886 27.4815H190.307C191.118 26.1781 192.254 25.108 193.604 24.3763C195.056 23.5945 196.685 23.1999 198.335 23.2303C199.809 23.203 201.273 23.4746 202.64 24.0286C203.835 24.5174 204.891 25.2928 205.716 26.2865C206.546 27.3232 207.16 28.5155 207.523 29.7932C207.946 31.2707 208.152 32.8017 208.135 34.3384V50.1189H201.151V35.1906C201.151 33.3098 200.735 31.9189 199.902 31.0177C199.069 30.1165 197.856 29.6643 196.263 29.661C195.382 29.6423 194.511 29.8533 193.736 30.2732C193.006 30.6836 192.371 31.2446 191.875 31.9189C191.341 32.658 190.946 33.4877 190.709 34.3677C190.435 35.3448 190.3 36.3554 190.307 37.3701V50.1042H183.348V24.0825H189.886V27.4815Z" fill="#1377FF"/>
<path d="M233.246 46.9843H232.82C232.094 48.1686 231.069 49.1402 229.847 49.8005C228.314 50.6254 226.59 51.0293 224.851 50.9711C223.209 50.9757 221.586 50.6213 220.095 49.9328C218.593 49.2453 217.239 48.2722 216.109 47.0676C214.921 45.7876 213.992 44.291 213.371 42.6596C212.026 39.0622 212.026 35.0999 213.371 31.5025C213.992 29.8709 214.921 28.3743 216.109 27.0945C217.239 25.8953 218.594 24.9286 220.095 24.249C221.586 23.5604 223.209 23.206 224.851 23.2106C226.59 23.1524 228.314 23.5563 229.847 24.3812C231.067 25.0431 232.093 26.0143 232.82 27.1974H233.246L232.82 23.48V12.0732H239.784V50.1189H233.246V46.9843ZM226.286 44.5354C227.186 44.5447 228.08 44.3783 228.916 44.0457C229.743 43.7102 230.493 43.2103 231.12 42.5763C231.776 41.9014 232.297 41.1066 232.653 40.2352C233.43 38.2177 233.43 35.9836 232.653 33.9661C232.294 33.0951 231.77 32.3018 231.11 31.6299C230.484 30.9946 229.734 30.4946 228.906 30.1605C228.069 29.8302 227.176 29.6639 226.276 29.6708C225.372 29.6665 224.477 29.8482 223.646 30.2046C222.822 30.5482 222.073 31.0471 221.437 31.6739C220.782 32.3579 220.266 33.1631 219.919 34.0445C219.136 36.0235 219.136 38.2267 219.919 40.2058C220.273 41.0796 220.796 41.8751 221.457 42.5469C222.094 43.1719 222.843 43.6705 223.666 44.0163C224.495 44.3658 225.386 44.544 226.286 44.5403V44.5354Z" fill="#1377FF"/>
<path d="M255.78 50.9711C254.241 50.9956 252.708 50.7808 251.235 50.3344C250.005 49.9569 248.84 49.3919 247.782 48.6594C246.838 48.0039 246.004 47.2039 245.309 46.2888C244.674 45.4503 244.157 44.5292 243.771 43.551L249.986 40.9013C250.482 42.1168 251.323 43.1605 252.406 43.9036C253.41 44.555 254.584 44.8957 255.78 44.8832C256.834 44.9364 257.881 44.6974 258.807 44.1926C259.551 43.7322 259.924 43.1837 259.924 42.547C259.926 42.2039 259.842 41.8658 259.679 41.5637C259.517 41.2616 259.281 41.0052 258.993 40.8181C258.002 40.2309 256.914 39.8262 255.78 39.623L252.112 38.8247C251.243 38.6256 250.398 38.3367 249.589 37.9627C248.735 37.5881 247.938 37.0933 247.224 36.4933C246.508 35.8833 245.913 35.144 245.471 34.3138C244.994 33.3965 244.757 32.3741 244.78 31.3409C244.754 30.1462 245.037 28.9651 245.603 27.9125C246.159 26.9146 246.93 26.053 247.861 25.3901C248.884 24.6663 250.026 24.1261 251.235 23.7935C252.593 23.4125 253.998 23.2245 255.408 23.2351C257.706 23.1971 259.982 23.7004 262.049 24.7045C264.001 25.6802 265.531 27.3321 266.354 29.3524L260.35 31.8013C259.903 30.8277 259.133 30.0386 258.17 29.5679C257.278 29.1252 256.297 28.8891 255.3 28.8773C254.394 28.8573 253.497 29.0679 252.695 29.4896C252.379 29.6176 252.106 29.8331 251.908 30.1106C251.71 30.3882 251.596 30.7165 251.578 31.0568C251.583 31.3593 251.673 31.6542 251.837 31.908C252.002 32.1618 252.234 32.3641 252.509 32.4919C253.305 32.9258 254.155 33.255 255.036 33.4714L259.018 34.451C261.675 35.104 263.651 36.1227 264.944 37.5072C266.22 38.8434 266.923 40.6258 266.903 42.4735C266.905 43.6032 266.631 44.7163 266.105 45.7158C265.549 46.7747 264.781 47.7069 263.847 48.4536C262.802 49.29 261.614 49.929 260.34 50.3393C258.865 50.7981 257.324 51.0115 255.78 50.9711Z" fill="#1377FF"/>
<path d="M271.135 12.0732H278.1V32.7955H278.418L287.131 24.0824H295.742V24.5085L286.069 33.9122L296.535 49.7173V50.1385H288.302L281.181 38.6973L278.1 41.7241V50.1189H271.135V12.0732Z" fill="#1377FF"/>
<path d="M307.486 48.8455L296.535 24.0824H304.454L311.042 39.863H311.414L317.742 24.0824H325.5L309.186 61.5992H301.712L307.486 48.8455Z" fill="#1377FF"/>
</g>
<defs>
<clipPath id="clip0">
<rect width="325" height="73.4662" fill="white" transform="translate(0.5 0.25)"/>
</clipPath>
</defs>
</svg>
