<svg width="1024" height="1024" viewBox="0 0 1024 1024" fill="none" xmlns="http://www.w3.org/2000/svg">
<rect width="1024" height="1024" fill="white"/>
<rect width="1024" height="1024" fill="url(#paint0_linear)"/>
<path d="M455.079 843.294C451.587 843.29 448.122 842.679 444.839 841.487C438.507 839.169 433.136 834.792 429.586 829.058C426.037 823.325 424.514 816.565 425.262 809.864L448.453 596.33H271.06C265.589 596.338 260.218 594.855 255.526 592.042C250.833 589.228 246.996 585.189 244.426 580.358C241.856 575.528 240.651 570.089 240.939 564.625C241.227 559.161 242.998 553.879 246.062 549.346L483.691 193.958C487.449 188.396 492.957 184.25 499.341 182.176C505.726 180.103 512.619 180.221 518.928 182.513C524.993 184.765 530.172 188.91 533.698 194.334C537.224 199.758 538.909 206.174 538.505 212.631L515.314 427.671H692.707C698.179 427.663 703.549 429.145 708.241 431.959C712.934 434.773 716.771 438.812 719.341 443.642C721.911 448.472 723.117 453.911 722.828 459.375C722.54 464.839 720.769 470.121 717.705 474.654L480.077 830.043C477.314 834.13 473.589 837.476 469.231 839.786C464.872 842.097 460.012 843.302 455.079 843.294V843.294Z" fill="black" fill-opacity="0.2"/>
<path d="M485.197 843.294C481.704 843.29 478.239 842.679 474.957 841.487C468.624 839.169 463.253 834.792 459.704 829.058C456.154 823.325 454.632 816.566 455.38 809.864L478.571 596.33H301.178C295.706 596.338 290.336 594.855 285.643 592.042C280.951 589.228 277.114 585.189 274.544 580.358C271.974 575.528 270.768 570.089 271.056 564.625C271.345 559.161 273.116 553.879 276.18 549.346L513.808 193.958C517.567 188.396 523.075 184.25 529.459 182.176C535.843 180.103 542.737 180.221 549.046 182.513C555.111 184.765 560.29 188.91 563.816 194.334C567.341 199.758 569.027 206.174 568.622 212.631L545.432 427.671H722.825C728.296 427.663 733.667 429.145 738.359 431.959C743.051 434.773 746.889 438.812 749.459 443.642C752.029 448.472 753.234 453.911 752.946 459.375C752.658 464.839 750.886 470.121 747.822 474.654L510.194 830.043C507.432 834.13 503.707 837.476 499.348 839.787C494.99 842.097 490.13 843.302 485.197 843.294V843.294Z" fill="white"/>
<defs>
<linearGradient id="paint0_linear" x1="512" y1="0" x2="512" y2="1024" gradientUnits="userSpaceOnUse">
<stop stop-color="#FF8B00"/>
<stop offset="1" stop-color="#FF5630"/>
</linearGradient>
</defs>
</svg>
