<svg xmlns="http://www.w3.org/2000/svg" width="48" height="48" viewBox="0 0 48 48"><g fill="none"><path fill="url(#fluentColorVideo480)" d="m22.5 24l16.233-11.325c2.221-1.55 5.267.04 5.267 2.747v17.156c0 2.708-3.046 4.297-5.267 2.747z"/><path fill="url(#fluentColorVideo482)" fill-opacity="0.75" d="m22.5 24l16.233-11.325c2.221-1.55 5.267.04 5.267 2.747v17.156c0 2.708-3.046 4.297-5.267 2.747z"/><path fill="url(#fluentColorVideo481)" d="M4 16.25A6.25 6.25 0 0 1 10.25 10h14.5A6.25 6.25 0 0 1 31 16.25v15.5A6.25 6.25 0 0 1 24.75 38h-14.5A6.25 6.25 0 0 1 4 31.75z"/><path fill="url(#fluentColorVideo483)" d="M8 30a4 4 0 0 1 4-4h10a4 4 0 0 1 0 8H12a4 4 0 0 1-4-4" opacity="0.5"/><path fill="#babaff" d="M12.026 28C10.907 28 10 28.922 10 30.059s.907 2.059 2.026 2.059h4.051c1.119 0 2.026-.922 2.026-2.06c0-1.136-.907-2.058-2.026-2.058zm9.948 4.118c1.12 0 2.026-.922 2.026-2.06C24 28.923 23.093 28 21.974 28s-2.025.922-2.025 2.059s.906 2.059 2.025 2.059"/><defs><radialGradient id="fluentColorVideo480" cx="0" cy="0" r="1" gradientTransform="rotate(71.85 10.87 27.523)scale(33.2683 65.6431)" gradientUnits="userSpaceOnUse"><stop offset=".081" stop-color="#f08af4"/><stop offset=".394" stop-color="#9c6cfe"/><stop offset="1" stop-color="#4e44db"/></radialGradient><radialGradient id="fluentColorVideo481" cx="0" cy="0" r="1" gradientTransform="matrix(31.06481 29.63332 -62.19623 65.20073 -.908 11.167)" gradientUnits="userSpaceOnUse"><stop stop-color="#f08af4"/><stop offset=".341" stop-color="#9c6cfe"/><stop offset="1" stop-color="#4e44db"/></radialGradient><linearGradient id="fluentColorVideo482" x1="27.534" x2="43.979" y1="24" y2="23.414" gradientUnits="userSpaceOnUse"><stop stop-color="#312a9a"/><stop offset="1" stop-color="#312a9a" stop-opacity="0"/></linearGradient><linearGradient id="fluentColorVideo483" x1="7.591" x2="10.308" y1="26" y2="36.688" gradientUnits="userSpaceOnUse"><stop stop-color="#3b148a"/><stop offset="1" stop-color="#4b20a0"/></linearGradient></defs></g></svg>