<svg width="100" height="100" viewBox="0 0 100 100" fill="none" xmlns="http://www.w3.org/2000/svg">
<path d="M0 33.2C0 5.8598 5.8598 0 33.2 0H66.8C94.1402 0 100 5.8598 100 33.2V66.8C100 94.1402 94.1402 100 66.8 100H33.2C5.8598 100 0 94.1402 0 66.8V33.2Z" fill="#2563EB"/>
<path d="M34.25 29H36.2975C36.6595 27.976 37.3303 27.0895 38.2173 26.4626C39.1043 25.8357 40.1639 25.4994 41.25 25.5H51.75C52.8361 25.4994 53.8957 25.8357 54.7827 26.4626C55.6697 27.0895 56.3405 27.976 56.7025 29H58.75C60.1424 29 61.4777 29.5531 62.4623 30.5377C63.4469 31.5223 64 32.8576 64 34.25V39.5H60.5V34.25C60.5 33.7859 60.3156 33.3408 59.9874 33.0126C59.6593 32.6844 59.2141 32.5 58.75 32.5H56.7025C56.3405 33.524 55.6697 34.4106 54.7827 35.0374C53.8957 35.6643 52.8361 36.0006 51.75 36H41.25C40.1639 36.0006 39.1043 35.6643 38.2173 35.0374C37.3303 34.4106 36.6595 33.524 36.2975 32.5H34.25C33.7859 32.5 33.3408 32.6844 33.0126 33.0126C32.6844 33.3408 32.5 33.7859 32.5 34.25V69.25C32.5 69.7141 32.6844 70.1592 33.0126 70.4874C33.3408 70.8156 33.7859 71 34.25 71H43.392V74.5H34.25C32.8576 74.5 31.5223 73.9469 30.5377 72.9623C29.5531 71.9777 29 70.6424 29 69.25V34.25C29 32.8576 29.5531 31.5223 30.5377 30.5377C31.5223 29.5531 32.8576 29 34.25 29ZM41.25 29C40.7859 29 40.3408 29.1844 40.0126 29.5126C39.6844 29.8408 39.5 30.2859 39.5 30.75C39.5 31.2141 39.6844 31.6592 40.0126 31.9874C40.3408 32.3156 40.7859 32.5 41.25 32.5H51.75C52.2141 32.5 52.6593 32.3156 52.9874 31.9874C53.3156 31.6592 53.5 31.2141 53.5 30.75C53.5 30.2859 53.3156 29.8408 52.9874 29.5126C52.6593 29.1844 52.2141 29 51.75 29H41.25Z" fill="#93C5FD"/>
<g filter="url(#filter0_d_2_26)">
<path d="M51.75 43C50.3576 43 49.0223 43.5531 48.0377 44.5377C47.0531 45.5223 46.5 46.8576 46.5 48.25V69.25C46.5 70.6424 47.0531 71.9777 48.0377 72.9623C49.0223 73.9469 50.3576 74.5 51.75 74.5H65.75C67.1424 74.5 68.4777 73.9469 69.4623 72.9623C70.4469 71.9777 71 70.6424 71 69.25V48.25C71 46.8576 70.4469 45.5223 69.4623 44.5377C68.4777 43.5531 67.1424 43 65.75 43H51.75Z" fill="#EFF6FF"/>
</g>
<defs>
<filter id="filter0_d_2_26" x="44.5" y="43" width="26.5" height="33.5" filterUnits="userSpaceOnUse" color-interpolation-filters="sRGB">
<feFlood flood-opacity="0" result="BackgroundImageFix"/>
<feColorMatrix in="SourceAlpha" type="matrix" values="0 0 0 0 0 0 0 0 0 0 0 0 0 0 0 0 0 0 127 0" result="hardAlpha"/>
<feOffset dx="-1" dy="1"/>
<feGaussianBlur stdDeviation="0.5"/>
<feComposite in2="hardAlpha" operator="out"/>
<feColorMatrix type="matrix" values="0 0 0 0 0 0 0 0 0 0 0 0 0 0 0 0 0 0 0.05 0"/>
<feBlend mode="normal" in2="BackgroundImageFix" result="effect1_dropShadow_2_26"/>
<feBlend mode="normal" in="SourceGraphic" in2="effect1_dropShadow_2_26" result="shape"/>
</filter>
</defs>
</svg>
