<svg width="224" height="47" viewBox="0 0 224 47" fill="none" xmlns="http://www.w3.org/2000/svg">
<path d="M5.60001 46C3.97867 46 2.72001 45.552 1.82401 44.656C0.970673 43.76 0.544006 42.5227 0.544006 40.944V5.80799C0.544006 4.14399 0.970673 2.88533 1.82401 2.03199C2.67734 1.17866 3.91467 0.751995 5.53601 0.751995C7.11467 0.751995 8.33067 1.17866 9.18401 2.03199C10.0373 2.88533 10.464 4.14399 10.464 5.80799V37.616H27.616C28.9813 37.616 30.0267 37.9787 30.752 38.704C31.52 39.4293 31.904 40.4533 31.904 41.776C31.904 43.1413 31.52 44.1867 30.752 44.912C30.0267 45.6373 28.9813 46 27.616 46H5.60001Z" fill="#059669"/>
<path d="M42.4155 46C40.7515 46 39.4715 45.552 38.5755 44.656C37.6795 43.76 37.2315 42.48 37.2315 40.816V6.064C37.2315 4.39999 37.6795 3.11999 38.5755 2.224C39.4715 1.32799 40.7515 0.879993 42.4155 0.879993H64.7515C66.0315 0.879993 66.9915 1.22133 67.6315 1.904C68.3142 2.54399 68.6555 3.48266 68.6555 4.71999C68.6555 5.99999 68.3142 6.98133 67.6315 7.66399C66.9915 8.30399 66.0315 8.62399 64.7515 8.62399H46.7035V19.184H63.2795C64.6022 19.184 65.5835 19.5253 66.2235 20.208C66.9062 20.848 67.2475 21.808 67.2475 23.088C67.2475 24.368 66.9062 25.3493 66.2235 26.032C65.5835 26.672 64.6022 26.992 63.2795 26.992H46.7035V38.256H64.7515C66.0315 38.256 66.9915 38.5973 67.6315 39.28C68.3142 39.92 68.6555 40.8587 68.6555 42.096C68.6555 43.376 68.3142 44.3573 67.6315 45.04C66.9915 45.68 66.0315 46 64.7515 46H42.4155Z" fill="#059669"/>
<path d="M78.61 46.576C77.33 46.576 76.2633 46.2347 75.41 45.552C74.5993 44.8267 74.13 43.952 74.002 42.928C73.874 41.8613 74.2153 40.7733 75.026 39.664L89.17 20.912V25.328L75.602 7.27999C74.7913 6.12799 74.4287 5.03999 74.514 4.016C74.642 2.94933 75.1113 2.07466 75.922 1.39199C76.7753 0.66666 77.8207 0.303993 79.058 0.303993C80.1247 0.303993 81.042 0.559994 81.81 1.07199C82.6207 1.58399 83.4313 2.39466 84.242 3.50399L94.802 18.096H91.602L102.098 3.50399C102.909 2.35199 103.719 1.54133 104.53 1.07199C105.341 0.559994 106.279 0.303993 107.346 0.303993C108.626 0.303993 109.671 0.645327 110.482 1.328C111.335 2.01066 111.805 2.88533 111.89 3.952C112.018 4.976 111.655 6.08533 110.802 7.27999L97.17 25.328V20.912L111.25 39.664C112.103 40.7733 112.466 41.8613 112.338 42.928C112.253 43.952 111.783 44.8267 110.93 45.552C110.119 46.2347 109.053 46.576 107.73 46.576C106.706 46.576 105.789 46.32 104.978 45.808C104.21 45.296 103.399 44.464 102.546 43.312L91.538 28.144H94.802L83.794 43.312C82.9833 44.464 82.1727 45.296 81.362 45.808C80.5513 46.32 79.634 46.576 78.61 46.576Z" fill="#059669"/>
<path d="M124.599 46.576C122.977 46.576 121.74 46.128 120.887 45.232C120.033 44.336 119.607 43.0773 119.607 41.456V5.424C119.607 3.80266 120.033 2.54399 120.887 1.64799C121.74 0.751994 122.977 0.303993 124.599 0.303993C126.177 0.303993 127.393 0.751994 128.247 1.64799C129.1 2.54399 129.527 3.80266 129.527 5.424V41.456C129.527 43.0773 129.1 44.336 128.247 45.232C127.436 46.128 126.22 46.576 124.599 46.576Z" fill="#059669"/>
<path d="M160.495 46.704C155.631 46.704 151.471 45.744 148.015 43.824C144.559 41.904 141.892 39.216 140.015 35.76C138.18 32.2613 137.263 28.144 137.263 23.408C137.263 19.8667 137.775 16.688 138.799 13.872C139.865 11.0133 141.401 8.58133 143.407 6.57599C145.412 4.52799 147.844 2.94933 150.703 1.83999C153.604 0.730661 156.868 0.175995 160.495 0.175995C162.628 0.175995 164.783 0.453328 166.959 1.008C169.177 1.51999 171.097 2.26666 172.719 3.24799C173.785 3.84533 174.511 4.59199 174.895 5.488C175.279 6.38399 175.385 7.27999 175.215 8.17599C175.087 9.07199 174.724 9.83999 174.127 10.48C173.572 11.12 172.868 11.5253 172.015 11.696C171.161 11.8667 170.201 11.6747 169.135 11.12C167.855 10.352 166.511 9.79733 165.103 9.45599C163.695 9.11466 162.265 8.94399 160.815 8.94399C157.956 8.94399 155.545 9.51999 153.583 10.672C151.663 11.7813 150.212 13.4027 149.231 15.536C148.249 17.6693 147.759 20.2933 147.759 23.408C147.759 26.48 148.249 29.104 149.231 31.28C150.212 33.456 151.663 35.12 153.583 36.272C155.545 37.3813 157.956 37.936 160.815 37.936C162.18 37.936 163.567 37.7653 164.975 37.424C166.425 37.0827 167.812 36.5493 169.135 35.824C170.244 35.2693 171.225 35.0773 172.079 35.248C172.975 35.376 173.7 35.76 174.255 36.4C174.852 36.9973 175.215 37.7227 175.343 38.576C175.513 39.4293 175.428 40.2827 175.087 41.136C174.745 41.9893 174.105 42.7147 173.167 43.312C171.588 44.3787 169.647 45.2107 167.343 45.808C165.039 46.4053 162.756 46.704 160.495 46.704Z" fill="#059669"/>
<path d="M182.824 46.576C181.629 46.576 180.648 46.2987 179.88 45.744C179.155 45.1893 178.685 44.4427 178.472 43.504C178.301 42.5653 178.493 41.52 179.048 40.368L195.432 4.46399C196.115 3.01333 196.925 1.96799 197.864 1.328C198.803 0.645327 199.891 0.303993 201.128 0.303993C202.365 0.303993 203.453 0.645327 204.392 1.328C205.331 1.96799 206.12 3.01333 206.76 4.46399L223.272 40.368C223.827 41.52 224.019 42.5867 223.848 43.568C223.72 44.5067 223.293 45.2533 222.568 45.808C221.843 46.32 220.904 46.576 219.752 46.576C218.301 46.576 217.171 46.2347 216.36 45.552C215.592 44.8693 214.909 43.8027 214.312 42.352L210.472 33.456L214.44 36.208H187.752L191.72 33.456L187.944 42.352C187.304 43.8453 186.621 44.9333 185.896 45.616C185.213 46.256 184.189 46.576 182.824 46.576ZM201 11.44L192.808 30.96L191.08 28.464H211.112L209.384 30.96L201.128 11.44H201Z" fill="#059669"/>
</svg>
