<svg width="245" height="35" viewBox="0 0 245 35" fill="none" xmlns="http://www.w3.org/2000/svg">
<path d="M25.44 17.008C25.216 17.136 24.992 17.232 24.768 17.296C24.576 17.36 24.352 17.44 24.096 17.536C24.512 17.76 24.88 18 25.2 18.256C25.552 18.512 25.84 18.816 26.064 19.168C26.448 19.744 26.736 20.48 26.928 21.376C27.152 22.24 27.264 23.296 27.264 24.544V26.704C27.232 26.8 27.216 26.976 27.216 27.232C27.216 29.024 27.664 29.92 28.56 29.92C29.488 29.92 29.952 28.8 29.952 26.56V25.216L29.904 24.064V23.392C29.904 22.912 29.92 22.496 29.952 22.144C29.984 21.792 30.048 21.504 30.144 21.28C30.464 20.512 31.184 20.128 32.304 20.128C33.936 20.128 34.752 20.992 34.752 22.72C34.752 22.752 34.752 22.88 34.752 23.104C34.752 23.296 34.736 23.52 34.704 23.776C34.704 23.936 34.688 24.112 34.656 24.304C34.656 24.464 34.656 24.608 34.656 24.736C34.624 25.056 34.608 25.312 34.608 25.504C34.608 25.696 34.608 25.84 34.608 25.936V27.088C34.64 27.216 34.656 27.36 34.656 27.52C34.656 27.648 34.656 27.776 34.656 27.904C34.656 29.92 34.08 31.488 32.928 32.608C31.808 33.696 30.224 34.24 28.176 34.24C24.048 34.24 21.984 32.192 21.984 28.096V26.704L22.032 25.168V24.16C22.032 22.272 21.712 21.088 21.072 20.608C20.432 20 18.992 19.696 16.752 19.696H12.48C12.032 19.696 11.808 20.08 11.808 20.848V24.4C11.808 25.52 11.808 26.4 11.808 27.04C11.84 27.648 11.856 28.032 11.856 28.192V28.144C12.112 29.36 12.624 29.968 13.392 29.968C13.68 29.968 13.952 29.936 14.208 29.872C14.72 29.776 15.168 29.728 15.552 29.728C17.056 29.728 17.808 30.464 17.808 31.936C17.808 33.472 16.848 34.24 14.928 34.24C14.864 34.208 14.8 34.192 14.736 34.192C14.544 34.192 14.384 34.176 14.256 34.144L11.808 33.808C11.296 33.744 10.848 33.696 10.464 33.664C10.08 33.632 9.71201 33.616 9.36001 33.616C9.16801 33.616 8.88001 33.648 8.49601 33.712C8.14401 33.776 7.76001 33.84 7.34401 33.904C6.96001 33.968 6.56001 34.032 6.14401 34.096C5.76001 34.192 5.42401 34.256 5.13601 34.288C4.78401 34.288 4.49601 34.304 4.27201 34.336C4.08001 34.368 3.72801 34.336 3.21601 34.24C1.36001 34.24 0.432007 33.472 0.432007 31.936C0.432007 30.528 1.16801 29.824 2.64001 29.824C2.67201 29.824 2.72001 29.84 2.78401 29.872C2.84801 29.872 2.94401 29.872 3.07201 29.872C3.16801 29.872 3.29601 29.888 3.45601 29.92C3.61601 29.92 3.77601 29.92 3.93601 29.92C4.09601 29.952 4.25601 29.984 4.41601 30.016C4.57601 30.016 4.73601 30.016 4.89601 30.016C5.92001 30.016 6.43201 29.088 6.43201 27.232V8.752C6.43201 6.96 5.93601 6.016 4.94401 5.92C4.94401 5.952 4.80001 5.984 4.51201 6.016C4.22401 6.016 4.00001 6.032 3.84001 6.064C3.64801 6.096 3.44001 6.128 3.21601 6.16C2.99201 6.16 2.80001 6.16 2.64001 6.16C2.06401 6.16 1.55201 5.952 1.10401 5.536C0.656007 5.088 0.432007 4.592 0.432007 4.048C0.432007 2.544 1.37601 1.792 3.26401 1.792C3.32801 1.792 3.42401 1.792 3.55201 1.792C3.71201 1.792 3.85601 1.808 3.98401 1.84C4.36801 1.872 4.75201 1.92 5.13601 1.984C5.55201 2.016 5.93601 2.048 6.28801 2.08C6.60801 2.112 6.94401 2.144 7.29601 2.176C7.68001 2.176 8.09601 2.176 8.54401 2.176C8.99201 2.176 9.44001 2.176 9.88801 2.176C10.368 2.144 10.88 2.112 11.424 2.08H11.712L15.216 1.888C15.792 1.856 16.352 1.84 16.896 1.84C17.472 1.808 18 1.792 18.48 1.792C25.744 1.792 29.376 4.592 29.376 10.192C29.376 13.488 28.064 15.76 25.44 17.008ZM16.656 15.328C17.872 15.328 18.928 15.248 19.824 15.088C20.752 14.928 21.52 14.672 22.128 14.32C23.408 13.616 24.048 12.32 24.048 10.432C24.048 7.36 21.904 5.824 17.616 5.824C15.184 5.824 13.568 6 12.768 6.352C12.16 6.608 11.856 7.184 11.856 8.08C11.856 8.304 11.84 8.544 11.808 8.8C11.808 9.056 11.808 9.28 11.808 9.472V14.8C11.808 15.056 11.824 15.216 11.856 15.28C11.92 15.312 12.08 15.328 12.336 15.328H16.656Z" fill="black"/>
<path d="M43.7059 8.752C43.7059 6.896 43.1779 5.968 42.1219 5.968C41.8979 5.968 41.6259 6 41.3059 6.064C40.8259 6.16 40.3619 6.208 39.9139 6.208C39.3059 6.208 38.7779 6.016 38.3299 5.632C37.9139 5.216 37.7059 4.688 37.7059 4.048C37.7059 2.544 38.6179 1.792 40.4419 1.792C40.4739 1.792 40.5699 1.792 40.7299 1.792C40.8899 1.792 41.0499 1.808 41.2099 1.84L44.9059 2.128C45.7379 2.192 46.3459 2.256 46.7299 2.32C47.1459 2.352 47.5779 2.352 48.0259 2.32L59.1619 1.984C59.3219 1.984 60.1059 1.936 61.5139 1.84H61.4659C61.7219 1.808 61.9619 1.792 62.1859 1.792C62.4099 1.792 62.6339 1.792 62.8579 1.792C65.0019 1.792 66.0739 2.72 66.0739 4.576C66.0739 4.672 66.0579 4.944 66.0259 5.392C65.9939 5.808 65.9459 6.336 65.8819 6.976C65.8179 7.424 65.7699 7.888 65.7379 8.368C65.7379 8.848 65.7379 9.264 65.7379 9.616C65.7379 10.128 65.7379 10.576 65.7379 10.96C65.7699 11.312 65.8019 11.584 65.8339 11.776C65.8979 12.224 65.9459 12.624 65.9779 12.976C66.0099 13.328 66.0259 13.632 66.0259 13.888C66.0259 15.456 65.2099 16.24 63.5779 16.24C61.9459 16.24 61.1299 15.216 61.1299 13.168V10.768C61.1299 8.464 60.7459 7.152 59.9779 6.832H60.0259C59.2259 6.512 57.2579 6.352 54.1219 6.352C52.1379 6.352 50.9059 6.4 50.4259 6.496C49.4979 6.816 49.0339 7.52 49.0339 8.608V11.776C49.0019 12 48.9859 12.192 48.9859 12.352C48.9859 12.48 48.9859 12.576 48.9859 12.64V13.216C48.9859 14.08 49.0499 14.576 49.1779 14.704C49.4979 14.768 49.8179 14.8 50.1379 14.8H52.0579C53.4339 14.8 54.1379 14.384 54.1699 13.552C54.1379 13.488 54.1059 13.296 54.0739 12.976C54.0739 12.656 54.0579 12.384 54.0259 12.16V12.208C53.9299 11.632 53.8819 11.04 53.8819 10.432C53.8819 8.8 54.6979 7.984 56.3299 7.984C57.9619 7.984 58.7779 8.848 58.7779 10.576C58.7779 10.736 58.7459 11.072 58.6819 11.584C58.6499 12.096 58.5699 12.752 58.4419 13.552C58.2499 14.96 58.1539 16.176 58.1539 17.2C58.1539 17.488 58.1699 17.92 58.2019 18.496C58.2339 19.04 58.2819 19.68 58.3459 20.416L58.5859 21.952C58.6819 22.624 58.7299 23.2 58.7299 23.68C58.7299 25.216 57.9139 25.984 56.2819 25.984C54.6819 25.984 53.8819 25.12 53.8819 23.392C53.8819 23.232 53.8819 23.008 53.8819 22.72C53.9139 22.432 53.9459 22.16 53.9779 21.904C53.9779 21.776 53.9779 21.6 53.9779 21.376C54.0099 21.152 54.0259 20.96 54.0259 20.8C54.0579 20.608 54.0739 20.48 54.0739 20.416C54.1059 20.32 54.1219 20.336 54.1219 20.464C54.1219 19.568 53.5139 19.12 52.2979 19.12H50.1859C49.6419 19.12 49.3059 19.232 49.1779 19.456C49.0819 19.68 49.0339 20.16 49.0339 20.896V23.776C49.0339 24.032 49.0339 24.32 49.0339 24.64C49.0339 24.928 49.0499 25.28 49.0819 25.696C49.1139 26.208 49.1299 26.64 49.1299 26.992C49.1299 27.312 49.1299 27.552 49.1299 27.712C49.1619 28.832 49.3059 29.456 49.5619 29.584C49.7219 29.712 50.3619 29.776 51.4819 29.776H57.7699C59.2739 29.776 60.2979 29.552 60.8419 29.104C61.4179 28.624 61.7059 27.776 61.7059 26.56C61.7059 26.4 61.7059 26.208 61.7059 25.984C61.7059 25.76 61.6899 25.504 61.6579 25.216C61.6579 25.12 61.6419 25.024 61.6099 24.928C61.6099 24.8 61.6099 24.688 61.6099 24.592C61.5779 24.208 61.5619 23.824 61.5619 23.44C61.5619 23.024 61.5619 22.704 61.5619 22.48C61.5619 20.656 62.3779 19.744 64.0099 19.744C65.7059 19.744 66.5539 20.672 66.5539 22.528C66.5539 22.72 66.5539 22.96 66.5539 23.248C66.5539 23.536 66.5379 23.856 66.5059 24.208C66.5059 24.304 66.4899 24.448 66.4579 24.64C66.4579 24.8 66.4579 24.944 66.4579 25.072C66.4579 25.232 66.4419 25.392 66.4099 25.552C66.4099 25.712 66.4099 25.872 66.4099 26.032C66.3779 26.384 66.3619 26.688 66.3619 26.944C66.3619 27.2 66.3619 27.424 66.3619 27.616C66.3619 27.808 66.3619 28.064 66.3619 28.384C66.3619 28.704 66.3779 29.088 66.4099 29.536C66.4099 29.664 66.4099 29.776 66.4099 29.872C66.4419 29.936 66.4579 30 66.4579 30.064C66.4899 30.32 66.5059 30.576 66.5059 30.832C66.5059 31.056 66.5059 31.248 66.5059 31.408C66.5059 33.296 65.5459 34.24 63.6259 34.24C63.4979 34.24 63.3219 34.24 63.0979 34.24C62.8739 34.24 62.6819 34.224 62.5219 34.192C62.4259 34.192 62.3139 34.176 62.1859 34.144C62.0899 34.144 61.9939 34.144 61.8979 34.144C61.3219 34.048 60.7939 34 60.3139 34C59.8339 33.968 59.3379 33.952 58.8259 33.952C58.3459 33.952 57.8179 33.968 57.2419 34C56.6659 34 56.0099 34 55.2739 34C54.1859 33.968 53.1619 33.952 52.2019 33.952C51.2739 33.92 50.4099 33.904 49.6099 33.904C46.7299 33.904 43.8979 34 41.1139 34.192C40.9859 34.192 40.8899 34.208 40.8259 34.24H40.4419C38.6179 34.24 37.7059 33.472 37.7059 31.936C37.7059 30.528 38.4419 29.824 39.9139 29.824C39.9459 29.824 39.9939 29.84 40.0579 29.872C40.1219 29.872 40.2179 29.872 40.3459 29.872C40.4419 29.872 40.5699 29.888 40.7299 29.92C40.8899 29.92 41.0499 29.92 41.2099 29.92C41.3699 29.952 41.5299 29.984 41.6899 30.016C41.8499 30.016 41.9939 30.016 42.1219 30.016C43.1779 30.016 43.7059 29.088 43.7059 27.232V8.752Z" fill="black"/>
<path d="M78.3548 19.936V16.096L78.3068 8.752C78.3068 6.896 77.7788 5.968 76.7228 5.968C76.5308 5.968 76.2748 6 75.9548 6.064C75.4108 6.16 74.9628 6.208 74.6108 6.208C74.0028 6.208 73.4748 6.016 73.0268 5.632C72.6108 5.216 72.4028 4.688 72.4028 4.048C72.4028 2.544 73.3148 1.792 75.1388 1.792C75.2028 1.792 75.2988 1.792 75.4268 1.792C75.5868 1.792 75.7468 1.808 75.9068 1.84L79.0268 2.176C79.6348 2.24 80.2588 2.288 80.8988 2.32C81.5708 2.352 82.2748 2.368 83.0108 2.368C83.8108 2.368 85.5068 2.32 88.0988 2.224L93.4748 2.032H93.4268L95.8748 1.888C96.0348 1.856 96.2428 1.84 96.4988 1.84C96.7868 1.84 97.0588 1.84 97.3148 1.84C99.4908 1.84 100.579 2.784 100.579 4.672C100.579 4.992 100.547 5.36 100.483 5.776C100.451 6.192 100.403 6.688 100.339 7.264C100.275 7.84 100.211 8.336 100.147 8.752C100.115 9.168 100.099 9.504 100.099 9.76C100.099 10.016 100.099 10.272 100.099 10.528C100.131 10.784 100.163 11.088 100.195 11.44C100.227 11.792 100.243 12.16 100.243 12.544C100.275 12.928 100.291 13.296 100.291 13.648C100.291 15.344 99.4748 16.192 97.8428 16.192C96.1788 16.192 95.3468 15.248 95.3468 13.36C95.3468 13.136 95.3468 12.864 95.3468 12.544C95.3468 12.192 95.3628 11.792 95.3948 11.344C95.3948 11.248 95.3948 11.152 95.3948 11.056C95.4268 10.928 95.4428 10.832 95.4428 10.768C95.4748 10.48 95.4908 10.224 95.4908 10C95.4908 9.744 95.4908 9.536 95.4908 9.376C95.4908 8 95.1868 7.184 94.5788 6.928C93.6508 6.512 91.5708 6.304 88.3388 6.304C85.7468 6.304 84.2908 6.496 83.9708 6.88C83.7788 7.136 83.6828 8.4 83.6828 10.672V14.08C83.6828 14.624 83.7628 14.976 83.9228 15.136C84.0828 15.264 84.4988 15.328 85.1708 15.328H86.7068C88.1788 15.328 88.9148 14.816 88.9148 13.792C88.9148 13.6 88.8988 13.392 88.8668 13.168C88.8348 12.912 88.8028 12.656 88.7708 12.4C88.7388 12.144 88.7068 11.904 88.6748 11.68C88.6748 11.424 88.6748 11.216 88.6748 11.056C88.6748 9.456 89.4908 8.656 91.1228 8.656C92.6908 8.656 93.4748 9.552 93.4748 11.344C93.4748 11.408 93.4748 11.504 93.4748 11.632C93.4748 11.728 93.4588 11.84 93.4268 11.968C93.4268 12.032 93.4108 12.112 93.3788 12.208C93.3788 12.304 93.3788 12.416 93.3788 12.544L93.0908 15.04C93.0268 15.584 92.9788 16.048 92.9468 16.432C92.9148 16.816 92.8988 17.136 92.8988 17.392C92.8988 18.608 93.0428 20.176 93.3308 22.096C93.4268 22.768 93.4748 23.424 93.4748 24.064C93.4748 25.696 92.6588 26.512 91.0268 26.512C89.4588 26.512 88.6748 25.648 88.6748 23.92C88.6748 23.76 88.6748 23.552 88.6748 23.296C88.6748 23.04 88.6908 22.768 88.7228 22.48C88.7548 22.192 88.7708 21.936 88.7708 21.712C88.8028 21.488 88.8188 21.296 88.8188 21.136C88.8188 20.432 88.6428 19.984 88.2908 19.792C88.1308 19.664 87.6028 19.6 86.7068 19.6H85.2668C84.4348 19.6 83.9548 19.664 83.8268 19.792C83.7308 19.888 83.6828 20.416 83.6828 21.376V26.848C83.6828 28.064 83.7788 28.88 83.9708 29.296C84.1948 29.712 84.6108 29.92 85.2188 29.92C85.2828 29.92 85.3948 29.92 85.5548 29.92C85.7148 29.92 85.9068 29.904 86.1308 29.872C86.3548 29.872 86.5628 29.872 86.7548 29.872C86.9468 29.84 87.1068 29.824 87.2348 29.824C89.1868 29.824 90.1628 30.56 90.1628 32.032C90.1628 32.672 89.9228 33.2 89.4428 33.616C88.9628 34.032 88.3868 34.24 87.7148 34.24C87.3628 34.24 87.0108 34.208 86.6588 34.144C86.3068 34.112 85.8908 34.064 85.4108 34C84.7388 33.872 84.0188 33.792 83.2508 33.76C82.5148 33.696 81.7468 33.664 80.9468 33.664C79.8908 33.664 78.7388 33.76 77.4908 33.952L75.9068 34.192C75.7788 34.192 75.6668 34.208 75.5708 34.24H75.2348C73.3468 34.24 72.4028 33.472 72.4028 31.936C72.4028 30.528 73.1388 29.824 74.6108 29.824C74.6428 29.824 74.6908 29.84 74.7548 29.872C74.8188 29.872 74.8988 29.872 74.9948 29.872C75.0908 29.872 75.2028 29.872 75.3308 29.872C75.4908 29.872 75.6668 29.888 75.8588 29.92C76.0188 29.952 76.1788 29.984 76.3388 30.016C76.4988 30.016 76.6428 30.016 76.7708 30.016C77.3148 30.016 77.6828 29.824 77.8748 29.44C78.0988 29.024 78.2268 28.288 78.2588 27.232L78.3548 19.936Z" fill="black"/>
<path d="M115.946 26.704C115.946 28.432 116.042 29.36 116.234 29.488C116.394 29.68 116.602 29.792 116.858 29.824C117.114 29.856 117.498 29.888 118.01 29.92C118.522 29.92 119.13 29.92 119.834 29.92H123.866C125.818 29.92 127.066 29.68 127.61 29.2C128.122 28.784 128.378 27.808 128.378 26.272V24.688C128.346 24.4 128.33 24.128 128.33 23.872C128.33 23.616 128.33 23.392 128.33 23.2C128.33 23.04 128.314 22.896 128.282 22.768C128.282 22.64 128.282 22.544 128.282 22.48C128.282 20.688 129.082 19.792 130.682 19.792C132.474 19.792 133.37 20.624 133.37 22.288C133.37 22.8 133.354 23.136 133.322 23.296L132.986 25.6C132.954 25.952 132.922 26.304 132.89 26.656C132.89 26.976 132.89 27.312 132.89 27.664C132.89 27.792 132.89 27.952 132.89 28.144C132.89 28.336 132.906 28.56 132.938 28.816C132.938 28.944 132.938 29.056 132.938 29.152C132.969 29.248 132.986 29.36 132.986 29.488C133.018 29.872 133.034 30.256 133.034 30.64C133.066 30.992 133.082 31.264 133.082 31.456C133.082 33.28 132.042 34.192 129.962 34.192C129.866 34.192 129.754 34.176 129.626 34.144C129.498 34.144 129.305 34.144 129.049 34.144C128.889 34.144 128.698 34.128 128.474 34.096C128.25 34.096 128.01 34.096 127.754 34.096C127.53 34.064 127.29 34.048 127.034 34.048C126.778 34.048 126.474 34.048 126.122 34.048C125.866 34.048 125.594 34.032 125.306 34C125.05 34 124.762 34 124.442 34L120.986 33.952H113.594C113.338 33.952 113.018 33.952 112.634 33.952C112.25 33.952 111.818 33.968 111.338 34C111.146 34 110.922 34 110.666 34C110.442 34.032 110.202 34.048 109.946 34.048C109.85 34.048 109.69 34.048 109.466 34.048C109.274 34.08 109.066 34.112 108.842 34.144C108.554 34.176 108.266 34.192 107.978 34.192C107.722 34.224 107.482 34.24 107.258 34.24C105.434 34.24 104.522 33.472 104.522 31.936C104.522 30.528 105.258 29.824 106.73 29.824C106.666 29.824 106.794 29.84 107.114 29.872C107.466 29.904 107.738 29.936 107.93 29.968C108.154 29.968 108.362 29.984 108.554 30.016C108.746 30.016 108.874 30.016 108.938 30.016C109.994 30.016 110.522 29.088 110.522 27.232V8.752C110.522 6.896 109.994 5.968 108.938 5.968C108.714 5.968 108.442 6 108.122 6.064C107.642 6.16 107.178 6.208 106.73 6.208C106.122 6.208 105.594 6.016 105.146 5.632C104.73 5.216 104.522 4.688 104.522 4.048C104.522 2.544 105.45 1.792 107.306 1.792C107.434 1.792 107.562 1.792 107.69 1.792C107.818 1.792 107.962 1.808 108.122 1.84H108.074L110.522 2.128C111.162 2.192 111.738 2.256 112.25 2.32C112.762 2.352 113.146 2.368 113.402 2.368C113.754 2.368 114.17 2.352 114.65 2.32C115.162 2.256 115.706 2.192 116.282 2.128L118.394 1.84H118.346C118.474 1.808 118.602 1.792 118.73 1.792C118.89 1.792 119.018 1.792 119.114 1.792C121.002 1.792 121.946 2.544 121.946 4.048C121.946 4.688 121.722 5.216 121.274 5.632C120.858 6.016 120.346 6.208 119.738 6.208C119.322 6.208 118.858 6.16 118.346 6.064C118.218 6.032 118.09 6.016 117.962 6.016C117.834 5.984 117.69 5.968 117.53 5.968C116.474 5.968 115.946 6.896 115.946 8.752V26.704Z" fill="black"/>
<path d="M143.484 8.752C143.484 6.896 142.956 5.968 141.9 5.968C141.676 5.968 141.404 6 141.084 6.064C140.604 6.16 140.14 6.208 139.692 6.208C139.084 6.208 138.556 6.016 138.108 5.632C137.692 5.216 137.484 4.688 137.484 4.048C137.484 2.544 138.396 1.792 140.22 1.792C140.252 1.792 140.348 1.792 140.508 1.792C140.668 1.792 140.828 1.808 140.988 1.84L144.684 2.128C145.516 2.192 146.124 2.256 146.508 2.32C146.924 2.352 147.356 2.352 147.804 2.32L158.94 1.984C159.1 1.984 159.884 1.936 161.292 1.84H161.244C161.5 1.808 161.74 1.792 161.964 1.792C162.188 1.792 162.412 1.792 162.636 1.792C164.78 1.792 165.852 2.72 165.852 4.576C165.852 4.672 165.836 4.944 165.804 5.392C165.772 5.808 165.724 6.336 165.66 6.976C165.596 7.424 165.548 7.888 165.516 8.368C165.516 8.848 165.516 9.264 165.516 9.616C165.516 10.128 165.516 10.576 165.516 10.96C165.548 11.312 165.58 11.584 165.612 11.776C165.676 12.224 165.724 12.624 165.756 12.976C165.788 13.328 165.804 13.632 165.804 13.888C165.804 15.456 164.988 16.24 163.356 16.24C161.724 16.24 160.908 15.216 160.908 13.168V10.768C160.908 8.464 160.524 7.152 159.756 6.832H159.804C159.004 6.512 157.036 6.352 153.9 6.352C151.916 6.352 150.684 6.4 150.204 6.496C149.276 6.816 148.812 7.52 148.812 8.608V11.776C148.78 12 148.764 12.192 148.764 12.352C148.764 12.48 148.764 12.576 148.764 12.64V13.216C148.764 14.08 148.828 14.576 148.956 14.704C149.276 14.768 149.596 14.8 149.916 14.8H151.836C153.212 14.8 153.916 14.384 153.948 13.552C153.916 13.488 153.884 13.296 153.852 12.976C153.852 12.656 153.836 12.384 153.804 12.16V12.208C153.708 11.632 153.66 11.04 153.66 10.432C153.66 8.8 154.476 7.984 156.108 7.984C157.74 7.984 158.556 8.848 158.556 10.576C158.556 10.736 158.524 11.072 158.46 11.584C158.428 12.096 158.348 12.752 158.22 13.552C158.028 14.96 157.932 16.176 157.932 17.2C157.932 17.488 157.948 17.92 157.98 18.496C158.012 19.04 158.06 19.68 158.124 20.416L158.364 21.952C158.46 22.624 158.508 23.2 158.508 23.68C158.508 25.216 157.692 25.984 156.06 25.984C154.46 25.984 153.66 25.12 153.66 23.392C153.66 23.232 153.66 23.008 153.66 22.72C153.692 22.432 153.724 22.16 153.756 21.904C153.756 21.776 153.756 21.6 153.756 21.376C153.788 21.152 153.804 20.96 153.804 20.8C153.836 20.608 153.852 20.48 153.852 20.416C153.884 20.32 153.9 20.336 153.9 20.464C153.9 19.568 153.292 19.12 152.076 19.12H149.964C149.42 19.12 149.084 19.232 148.956 19.456C148.86 19.68 148.812 20.16 148.812 20.896V23.776C148.812 24.032 148.812 24.32 148.812 24.64C148.812 24.928 148.828 25.28 148.86 25.696C148.892 26.208 148.908 26.64 148.908 26.992C148.908 27.312 148.908 27.552 148.908 27.712C148.94 28.832 149.084 29.456 149.34 29.584C149.5 29.712 150.14 29.776 151.26 29.776H157.548C159.052 29.776 160.076 29.552 160.62 29.104C161.196 28.624 161.484 27.776 161.484 26.56C161.484 26.4 161.484 26.208 161.484 25.984C161.484 25.76 161.468 25.504 161.436 25.216C161.436 25.12 161.42 25.024 161.388 24.928C161.388 24.8 161.388 24.688 161.388 24.592C161.356 24.208 161.34 23.824 161.34 23.44C161.34 23.024 161.34 22.704 161.34 22.48C161.34 20.656 162.156 19.744 163.788 19.744C165.484 19.744 166.332 20.672 166.332 22.528C166.332 22.72 166.332 22.96 166.332 23.248C166.332 23.536 166.316 23.856 166.284 24.208C166.284 24.304 166.268 24.448 166.236 24.64C166.236 24.8 166.236 24.944 166.236 25.072C166.236 25.232 166.22 25.392 166.188 25.552C166.188 25.712 166.188 25.872 166.188 26.032C166.156 26.384 166.14 26.688 166.14 26.944C166.14 27.2 166.14 27.424 166.14 27.616C166.14 27.808 166.14 28.064 166.14 28.384C166.14 28.704 166.156 29.088 166.188 29.536C166.188 29.664 166.188 29.776 166.188 29.872C166.22 29.936 166.236 30 166.236 30.064C166.268 30.32 166.284 30.576 166.284 30.832C166.284 31.056 166.284 31.248 166.284 31.408C166.284 33.296 165.324 34.24 163.404 34.24C163.276 34.24 163.1 34.24 162.876 34.24C162.652 34.24 162.46 34.224 162.3 34.192C162.204 34.192 162.092 34.176 161.964 34.144C161.868 34.144 161.772 34.144 161.676 34.144C161.1 34.048 160.572 34 160.092 34C159.612 33.968 159.116 33.952 158.604 33.952C158.124 33.952 157.596 33.968 157.02 34C156.444 34 155.788 34 155.052 34C153.964 33.968 152.94 33.952 151.98 33.952C151.052 33.92 150.188 33.904 149.388 33.904C146.508 33.904 143.676 34 140.892 34.192C140.764 34.192 140.668 34.208 140.604 34.24H140.22C138.396 34.24 137.484 33.472 137.484 31.936C137.484 30.528 138.22 29.824 139.692 29.824C139.724 29.824 139.772 29.84 139.836 29.872C139.9 29.872 139.996 29.872 140.124 29.872C140.22 29.872 140.348 29.888 140.508 29.92C140.668 29.92 140.828 29.92 140.988 29.92C141.148 29.952 141.308 29.984 141.468 30.016C141.628 30.016 141.772 30.016 141.9 30.016C142.956 30.016 143.484 29.088 143.484 27.232V8.752Z" fill="black"/>
<path d="M187.685 0.975998C188.389 0.975998 189.141 1.056 189.941 1.216C190.773 1.376 191.541 1.584 192.245 1.84C192.949 2.096 193.557 2.384 194.069 2.704C194.581 2.992 194.885 3.28 194.981 3.568C194.981 2.832 195.173 2.24 195.557 1.792C195.973 1.312 196.549 1.072 197.285 1.072C198.853 1.072 199.637 1.92 199.637 3.616C199.637 3.904 199.589 4.672 199.493 5.92V5.872C199.429 6.64 199.365 7.296 199.301 7.84C199.269 8.352 199.253 8.752 199.253 9.04C199.253 9.808 199.301 10.64 199.397 11.536L199.541 13.264V13.792C199.541 15.584 198.741 16.48 197.141 16.48C195.381 16.48 194.533 15.616 194.597 13.888C194.597 13.6 194.597 13.312 194.597 13.024C194.629 12.736 194.645 12.464 194.645 12.208C194.709 10.16 194.085 8.512 192.773 7.264C191.493 6.016 189.797 5.392 187.685 5.392C184.869 5.392 182.677 6.496 181.109 8.704C179.541 10.912 178.757 13.984 178.757 17.92C178.757 21.952 179.573 25.088 181.205 27.328C182.837 29.536 185.109 30.64 188.021 30.64C189.589 30.64 190.981 30.272 192.197 29.536C193.413 28.768 194.277 27.76 194.789 26.512C194.949 26.096 195.061 25.616 195.125 25.072C195.221 24.528 195.269 23.888 195.269 23.152C195.269 21.328 196.117 20.416 197.813 20.416C199.605 20.416 200.501 21.328 200.501 23.152C200.501 26.64 199.269 29.488 196.805 31.696C194.405 33.904 191.301 35.008 187.493 35.008C183.141 35.008 179.621 33.472 176.933 30.4C175.621 28.864 174.645 27.104 174.005 25.12C173.397 23.104 173.093 20.848 173.093 18.352C173.093 15.76 173.413 13.44 174.053 11.392C174.693 9.312 175.685 7.456 177.029 5.824C179.685 2.592 183.237 0.975998 187.685 0.975998Z" fill="black"/>
<path d="M222.279 27.28C222.279 29.136 222.807 30.064 223.863 30.064C223.927 30.064 224.055 30.064 224.247 30.064C224.471 30.032 224.679 30 224.871 29.968C225.095 29.968 225.367 29.952 225.687 29.92C226.007 29.888 226.135 29.872 226.071 29.872C226.679 29.872 227.207 30.096 227.655 30.544C228.103 30.96 228.327 31.44 228.327 31.984C228.327 33.488 227.383 34.24 225.495 34.24H225.111C225.015 34.208 224.903 34.192 224.775 34.192L222.471 33.856C222.023 33.792 221.575 33.744 221.127 33.712C220.679 33.68 220.215 33.664 219.735 33.664C219.191 33.664 218.663 33.68 218.151 33.712C217.639 33.744 217.159 33.792 216.711 33.856L214.407 34.192C214.279 34.192 214.183 34.208 214.119 34.24H213.687C211.799 34.24 210.855 33.488 210.855 31.984C210.855 30.576 211.607 29.872 213.111 29.872C213.047 29.872 213.175 29.888 213.495 29.92C213.847 29.952 214.119 29.968 214.311 29.968C214.535 30 214.743 30.032 214.935 30.064C215.127 30.064 215.255 30.064 215.319 30.064C216.343 30.064 216.855 29.136 216.855 27.28V24.064L216.903 19.984V16.096L216.855 8.56C216.855 6.8 215.991 5.92 214.263 5.92H212.871C211.175 5.92 210.327 6.784 210.327 8.512C210.327 8.896 210.327 9.216 210.327 9.472C210.327 9.696 210.343 9.888 210.375 10.048L210.567 11.68C210.599 11.84 210.615 12.032 210.615 12.256C210.615 12.48 210.615 12.704 210.615 12.928C210.615 15.296 209.751 16.48 208.023 16.48C206.359 16.48 205.527 15.568 205.527 13.744C205.527 13.616 205.527 13.424 205.527 13.168C205.527 12.912 205.543 12.672 205.575 12.448C205.575 12.352 205.575 12.24 205.575 12.112C205.607 11.952 205.623 11.792 205.623 11.632C205.719 10.192 205.767 9.264 205.767 8.848C205.767 8.496 205.751 8.128 205.719 7.744C205.719 7.36 205.703 6.944 205.671 6.496L205.527 5.104C205.495 4.912 205.495 4.816 205.527 4.816C205.559 4.816 205.543 4.672 205.479 4.384C205.479 2.656 206.327 1.792 208.023 1.792C208.215 1.792 208.567 1.808 209.079 1.84C209.623 1.84 210.279 1.872 211.047 1.936H211.431C211.719 1.936 212.135 1.952 212.679 1.984C213.255 1.984 213.959 2 214.791 2.032C215.655 2.032 216.519 2.048 217.383 2.08C218.279 2.112 219.159 2.128 220.023 2.128C220.183 2.128 220.423 2.128 220.743 2.128C221.063 2.096 221.447 2.08 221.895 2.08C222.279 2.08 222.727 2.08 223.239 2.08C223.751 2.048 224.327 2.032 224.967 2.032C225.511 2.032 226.503 1.984 227.943 1.888C228.487 1.824 229.031 1.792 229.575 1.792C230.119 1.76 230.567 1.744 230.919 1.744C232.967 1.744 233.991 2.624 233.991 4.384C233.991 4.704 233.943 5.296 233.847 6.16C233.783 6.992 233.719 7.872 233.655 8.8V9.28C233.655 9.472 233.655 9.76 233.655 10.144C233.655 10.496 233.687 10.912 233.751 11.392C233.815 12.032 233.863 12.56 233.895 12.976C233.927 13.392 233.943 13.68 233.943 13.84C233.943 15.504 233.079 16.336 231.351 16.336C229.687 16.336 228.855 15.36 228.855 13.408C228.855 12.864 228.903 12.032 228.999 10.912C229.031 10.368 229.047 9.888 229.047 9.472C229.079 9.056 229.095 8.72 229.095 8.464C229.095 6.768 228.151 5.92 226.263 5.92H224.967C224.135 5.92 223.527 6.128 223.143 6.544C222.759 6.96 222.535 7.584 222.471 8.416L222.327 11.632L222.279 27.28Z" fill="black"/>
<path d="M240.543 34.768C239.519 34.768 238.655 34.432 237.951 33.76C237.247 33.088 236.895 32.24 236.895 31.216C236.895 30.224 237.247 29.392 237.951 28.72C238.655 28.016 239.519 27.664 240.543 27.664C241.567 27.664 242.431 28.016 243.135 28.72C243.839 29.392 244.191 30.224 244.191 31.216C244.191 32.24 243.839 33.088 243.135 33.76C242.431 34.432 241.567 34.768 240.543 34.768Z" fill="black"/>
</svg>
