<svg width="24" height="24" viewBox="0 0 24 24" fill="none" xmlns="http://www.w3.org/2000/svg">
<g clip-path="url(#clip0_554_8)">
<g filter="url(#filter0_b_554_8)">
<rect width="24" height="24" rx="5" fill="#3D4FF6"/>
</g>
<path d="M10.9 20.1C10.2467 19.4412 9.7421 18.6501 9.42 17.78C6.27 17.25 4 15.76 4 14V17C4 19.21 7.58 21 12 21C11.6 20.74 11.23 20.44 10.9 20.1ZM4 9V12C4 13.68 6.07 15.12 9 15.7V15.5C9 14.57 9.2 13.65 9.58 12.81C6.34 12.3 4 10.79 4 9ZM12 3C7.58 3 4 4.79 4 7C4 9 7 10.68 10.85 11H10.9C12.1 9.74 13.76 9 15.5 9C16.41 9 17.31 9.19 18.14 9.56C18.6442 9.3295 19.0803 8.97273 19.4062 8.52424C19.732 8.07575 19.9366 7.55073 20 7C20 4.79 16.42 3 12 3Z" fill="white"/>
<path d="M18.18 17C18.22 16.67 18.25 16.34 18.25 16C18.25 15.66 18.22 15.33 18.18 15H19.87C19.95 15.32 20 15.655 20 16C20 16.345 19.95 16.68 19.87 17M17.295 19.78C17.595 19.225 17.825 18.625 17.985 18H19.46C18.9756 18.8341 18.2071 19.466 17.295 19.78ZM17.17 17H14.83C14.78 16.67 14.75 16.34 14.75 16C14.75 15.66 14.78 15.325 14.83 15H17.17C17.215 15.325 17.25 15.66 17.25 16C17.25 16.34 17.215 16.67 17.17 17ZM16 19.98C15.585 19.38 15.25 18.715 15.045 18H16.955C16.75 18.715 16.415 19.38 16 19.98ZM14 14H12.54C13.0193 13.1635 13.7873 12.5306 14.7 12.22C14.4 12.775 14.175 13.375 14 14ZM12.54 18H14C14.175 18.625 14.4 19.225 14.7 19.78C13.7891 19.4662 13.0221 18.8341 12.54 18ZM12.13 17C12.05 16.68 12 16.345 12 16C12 15.655 12.05 15.32 12.13 15H13.82C13.78 15.33 13.75 15.66 13.75 16C13.75 16.34 13.78 16.67 13.82 17M16 12.015C16.415 12.615 16.75 13.285 16.955 14H15.045C15.25 13.285 15.585 12.615 16 12.015ZM19.46 14H17.985C17.8283 13.3808 17.5966 12.7831 17.295 12.22C18.215 12.535 18.98 13.17 19.46 14ZM16 11C13.235 11 11 13.25 11 16C11 17.3261 11.5268 18.5979 12.4645 19.5355C12.9288 19.9998 13.48 20.3681 14.0866 20.6194C14.6932 20.8707 15.3434 21 16 21C17.3261 21 18.5979 20.4732 19.5355 19.5355C20.4732 18.5979 21 17.3261 21 16C21 15.3434 20.8707 14.6932 20.6194 14.0866C20.3681 13.48 19.9998 12.9288 19.5355 12.4645C19.0712 12.0002 18.52 11.6319 17.9134 11.3806C17.3068 11.1293 16.6566 11 16 11Z" fill="white"/>
</g>
<defs>
<filter id="filter0_b_554_8" x="-4" y="-4" width="32" height="32" filterUnits="userSpaceOnUse" color-interpolation-filters="sRGB">
<feFlood flood-opacity="0" result="BackgroundImageFix"/>
<feGaussianBlur in="BackgroundImageFix" stdDeviation="2"/>
<feComposite in2="SourceAlpha" operator="in" result="effect1_backgroundBlur_554_8"/>
<feBlend mode="normal" in="SourceGraphic" in2="effect1_backgroundBlur_554_8" result="shape"/>
</filter>
<clipPath id="clip0_554_8">
<rect width="24" height="24" fill="white"/>
</clipPath>
</defs>
</svg>
