<svg
  width="48"
  height="48"
  viewBox="0 0 48 48"
  fill="none"
  xmlns="http://www.w3.org/2000/svg"
>
  <path
    d="M22.59 3.846C22.6951 3.55642 22.8868 3.30623 23.1391 3.12942C23.3914 2.95261 23.692 2.85776 24 2.85776C24.3081 2.85776 24.6087 2.95261 24.8609 3.12942C25.1132 3.30623 25.3049 3.55642 25.41 3.846L26.844 7.764C27.9672 10.8363 29.7475 13.6264 32.0606 15.9394C34.3737 18.2525 37.1637 20.0328 40.236 21.156L44.151 22.59C44.4406 22.6951 44.6908 22.8868 44.8676 23.1391C45.0444 23.3913 45.1393 23.6919 45.1393 24C45.1393 24.3081 45.0444 24.6086 44.8676 24.8609C44.6908 25.1132 44.4406 25.3049 44.151 25.41L40.236 26.844C37.1637 27.9672 34.3737 29.7475 32.0606 32.0606C29.7475 34.3736 27.9672 37.1637 26.844 40.236L25.41 44.151C25.3049 44.4406 25.1132 44.6908 24.8609 44.8676C24.6087 45.0444 24.3081 45.1392 24 45.1392C23.692 45.1392 23.3914 45.0444 23.1391 44.8676C22.8868 44.6908 22.6951 44.4406 22.59 44.151L21.156 40.236C20.0328 37.1637 18.2525 34.3736 15.9395 32.0606C13.6264 29.7475 10.8363 27.9672 7.76403 26.844L3.84603 25.41C3.55645 25.3049 3.30626 25.1132 3.12945 24.8609C2.95264 24.6086 2.85779 24.3081 2.85779 24C2.85779 23.6919 2.95264 23.3913 3.12945 23.1391C3.30626 22.8868 3.55645 22.6951 3.84603 22.59L7.76403 21.156C10.8363 20.0328 13.6264 18.2525 15.9395 15.9394C18.2525 13.6264 20.0328 10.8363 21.156 7.764L22.59 3.846Z"
    fill="#7000FF"
  />
</svg>
