<?xml version="1.0" encoding="UTF-8" standalone="no"?>
<svg
   xmlns:dc="http://purl.org/dc/elements/1.1/"
   xmlns:cc="http://creativecommons.org/ns#"
   xmlns:rdf="http://www.w3.org/1999/02/22-rdf-syntax-ns#"
   xmlns:svg="http://www.w3.org/2000/svg"
   xmlns="http://www.w3.org/2000/svg"
   xmlns:sodipodi="http://sodipodi.sourceforge.net/DTD/sodipodi-0.dtd"
   xmlns:inkscape="http://www.inkscape.org/namespaces/inkscape"
   width="21"
   height="21"
   viewBox="0 0 21 21"
   fill="none"
   version="1.1"
   id="svg32"
   sodipodi:docname="chakra-view.svg"
   inkscape:version="1.0.2 (1.0.2+r75+1)">
  <metadata
     id="metadata36">
    <rdf:RDF>
      <cc:Work
         rdf:about="">
        <dc:format>image/svg+xml</dc:format>
        <dc:type
           rdf:resource="http://purl.org/dc/dcmitype/StillImage" />
      </cc:Work>
    </rdf:RDF>
  </metadata>
  <sodipodi:namedview
     pagecolor="#ffffff"
     bordercolor="#666666"
     borderopacity="1"
     objecttolerance="10"
     gridtolerance="10"
     guidetolerance="10"
     inkscape:pageopacity="0"
     inkscape:pageshadow="2"
     inkscape:window-width="1366"
     inkscape:window-height="704"
     id="namedview34"
     showgrid="false"
     inkscape:zoom="24.490393"
     inkscape:cx="10.5"
     inkscape:cy="10.5"
     inkscape:window-x="0"
     inkscape:window-y="27"
     inkscape:window-maximized="1"
     inkscape:current-layer="svg32" />
  <g
     id="g865"
     transform="matrix(0.85714286,0,0,0.85714286,1.5,1.5)">
    <path
       d="m 21,10.5 c 0,1.7397 -4.701,3.15 -10.5,3.15 C 4.70101,13.65 0,12.2397 0,10.5 0,8.7603 4.70101,7.35 10.5,7.35 16.299,7.35 21,8.7603 21,10.5 Z"
       fill="url(#paint0_linear)"
       fill-opacity="0.9"
       id="path2"
       style="fill:url(#paint0_linear)" />
    <path
       d="m 9.975,0 c 1.7397,0 3.15,4.70101 3.15,10.5 0,5.799 -1.4103,10.5 -3.15,10.5 C 8.2353,21 6.825,16.299 6.825,10.5 6.825,4.70101 8.2353,0 9.975,0 Z"
       fill="url(#paint1_linear)"
       fill-opacity="0.9"
       id="path4"
       style="fill:url(#paint1_linear)" />
    <path
       d="M 17.9246,17.9246 C 16.6944,19.1548 12.3731,16.8279 8.27258,12.7274 4.17208,8.62688 1.8452,4.30553 3.07535,3.07538 4.3055,1.84523 8.62685,4.17211 12.7274,8.27261 c 4.1005,4.10049 6.4273,8.42189 5.1972,9.65199 z"
       fill="url(#paint2_linear)"
       fill-opacity="0.9"
       id="path6"
       style="fill:url(#paint2_linear)" />
    <path
       d="M 17.5534,2.70415 C 18.7835,3.9343 16.4566,8.25565 12.3561,12.3562 8.25562,16.4567 3.93427,18.7835 2.70412,17.5534 1.47396,16.3232 3.80085,12.0019 7.90135,7.90138 12.0019,3.80088 16.3232,1.474 17.5534,2.70415 Z"
       fill="url(#paint3_linear)"
       fill-opacity="0.9"
       id="path8"
       style="fill:url(#paint3_linear)" />
  </g>
  <defs
     id="defs30">
    <linearGradient
       id="paint0_linear"
       x1="18.9"
       y1="1.8375"
       x2="2.8875"
       y2="17.325"
       gradientUnits="userSpaceOnUse">
      <stop
         stop-color="#FBBF24"
         id="stop10" />
      <stop
         offset="0.635417"
         stop-color="#F5661E"
         id="stop12" />
    </linearGradient>
    <linearGradient
       id="paint1_linear"
       x1="18.9"
       y1="1.8375"
       x2="2.8875"
       y2="17.325"
       gradientUnits="userSpaceOnUse">
      <stop
         stop-color="#FBBF24"
         id="stop15" />
      <stop
         offset="0.635417"
         stop-color="#F5661E"
         id="stop17" />
    </linearGradient>
    <linearGradient
       id="paint2_linear"
       x1="18.9"
       y1="1.8375"
       x2="2.8875"
       y2="17.325"
       gradientUnits="userSpaceOnUse">
      <stop
         stop-color="#FBBF24"
         id="stop20" />
      <stop
         offset="0.635417"
         stop-color="#F5661E"
         id="stop22" />
    </linearGradient>
    <linearGradient
       id="paint3_linear"
       x1="18.9"
       y1="1.8375"
       x2="2.8875"
       y2="17.325"
       gradientUnits="userSpaceOnUse">
      <stop
         stop-color="#FBBF24"
         id="stop25" />
      <stop
         offset="0.635417"
         stop-color="#F5661E"
         id="stop27" />
    </linearGradient>
  </defs>
</svg>
